<?xml version="1.0" encoding="utf-8"?>
<!-- Generator: Adobe Illustrator 23.0.4, SVG Export Plug-In . SVG Version: 6.00 Build 0)  -->
<svg version="1.1" baseProfile="tiny" id="Capa_1" xmlns="http://www.w3.org/2000/svg" xmlns:xlink="http://www.w3.org/1999/xlink"
	 x="0px" y="0px" viewBox="0 0 106 33" xml:space="preserve">
<g>
	<g>
		<path fill="#E9E9E9" d="M50.24,29.78c0,0.79-0.27,1.47-0.81,2.02c-0.54,0.55-1.21,0.83-2,0.83c-0.78,0-1.46-0.28-2.02-0.83
			c-0.56-0.56-0.85-1.22-0.85-2.01c0-0.79,0.28-1.47,0.85-2.02c0.56-0.55,1.24-0.83,2.02-0.83c0.49,0,0.96,0.13,1.41,0.38
			c0.44,0.26,0.79,0.6,1.04,1.03C50.12,28.79,50.24,29.26,50.24,29.78z"/>
		<path fill="#E9E9E9" d="M63.15,31.76c-0.4,0.15-0.82,0.29-1.26,0.42c-0.44,0.13-0.94,0.23-1.49,0.32
			c-0.55,0.08-1.15,0.13-1.8,0.13c-1.47,0-2.72-0.25-3.73-0.75c-1.02-0.5-1.8-1.12-2.35-1.88c-0.55-0.75-0.93-1.52-1.14-2.31
			c-0.21-0.78-0.32-1.48-0.32-2.08c0-0.6,0.11-1.29,0.32-2.08c0.22-0.78,0.59-1.54,1.13-2.27c0.54-0.73,1.32-1.34,2.33-1.84
			c1.02-0.49,2.27-0.74,3.76-0.74c1,0,1.81,0.07,2.43,0.21c0.63,0.14,1.26,0.33,1.9,0.57v3.74c-1.55-0.49-2.76-0.74-3.64-0.74
			c-0.85,0-1.6,0.26-2.25,0.77c-0.66,0.51-0.98,1.3-0.98,2.38c0,0.71,0.16,1.32,0.49,1.8c0.33,0.49,0.74,0.85,1.24,1.08
			c0.5,0.23,1,0.34,1.51,0.34c0.48,0,1.02-0.07,1.63-0.21c0.61-0.14,1.35-0.34,2.22-0.61V31.76z"/>
		<path fill="#E9E9E9" d="M79.78,25.64c0,1.34-0.29,2.53-0.87,3.58c-0.58,1.05-1.45,1.88-2.61,2.49c-1.16,0.61-2.57,0.91-4.24,0.91
			c-1.67,0-3.08-0.3-4.24-0.91c-1.16-0.61-2.03-1.44-2.6-2.49c-0.58-1.05-0.87-2.24-0.87-3.58c0-1.01,0.16-1.93,0.48-2.76
			c0.32-0.83,0.81-1.56,1.47-2.2c0.66-0.64,1.46-1.13,2.43-1.47c0.96-0.34,2.07-0.52,3.33-0.52c1.27,0,2.39,0.17,3.36,0.52
			c0.97,0.35,1.78,0.84,2.42,1.46c0.64,0.63,1.12,1.36,1.45,2.19C79.61,23.71,79.78,24.63,79.78,25.64z M74.77,25.64
			c0-1.07-0.23-1.9-0.69-2.51c-0.46-0.6-1.13-0.91-2.02-0.91c-0.87,0-1.54,0.3-2,0.91c-0.46,0.6-0.69,1.44-0.69,2.51
			c0,1.06,0.23,1.89,0.7,2.51c0.47,0.62,1.13,0.93,2,0.93c0.88,0,1.55-0.31,2.02-0.92C74.54,27.55,74.77,26.71,74.77,25.64z"/>
		<path fill="#E9E9E9" d="M105.69,32.39h-4.76v-7.18c0-0.95-0.16-1.66-0.47-2.13c-0.31-0.47-0.81-0.71-1.49-0.71
			c-0.66,0-1.2,0.2-1.63,0.6c-0.42,0.4-0.85,0.91-1.27,1.51v7.91h-4.76v-7.18c0-0.91-0.15-1.61-0.44-2.1
			c-0.29-0.49-0.81-0.74-1.55-0.74c-0.35,0-0.68,0.07-0.97,0.21c-0.3,0.14-0.54,0.3-0.72,0.48c-0.18,0.18-0.41,0.44-0.67,0.78
			c-0.26,0.34-0.43,0.56-0.5,0.65v7.91h-4.76V18.93h4.76v1.93c0.71-0.76,1.44-1.31,2.18-1.65c0.74-0.34,1.6-0.52,2.56-0.52
			c0.46,0,0.89,0.04,1.31,0.13c0.41,0.08,0.82,0.23,1.22,0.43c0.4,0.2,0.76,0.48,1.09,0.83c0.33,0.35,0.59,0.76,0.78,1.23
			c0.77-0.86,1.56-1.52,2.39-1.96c0.82-0.44,1.77-0.66,2.85-0.66c1.08,0,1.98,0.22,2.7,0.65c0.73,0.43,1.26,1.06,1.61,1.87
			c0.35,0.82,0.52,1.8,0.52,2.97V32.39z"/>
	</g>
	<g>
		<path fill="#E9E9E9" d="M33.16,3.36h-8.11V0.26h-3.1h-3.09v3.09h-8.08L0.31,15.34v17.39h43.28V15.34L33.16,3.36z M31.98,6.42
			l7.76,8.91h-16.2l-7.8-8.91L31.98,6.42z M12.03,6.4l7.61,8.94H4.21L12.03,6.4z M20.41,29.64h-17v-11.2h17V29.64z M40.51,29.64
			H23.5v-11.2h17.01V29.64z"/>
	</g>
</g>
</svg>
